<svg id="logo" data-name="Layer 1" xmlns="http://www.w3.org/2000/svg" viewBox="0 0 202 202"><defs><style>.cls-1{fill:red;}</style></defs><path class="cls-1" d="M21.7,65.39l2.9-5.5c1.52-2.88,4.46-3.9,7.16-2.48s3.51,4.43,2,7.3l-2.66,5,6.32,3.34-.25.46Zm11.68-.87A4.76,4.76,0,1,0,25,60.08l-2.66,5,8.4,4.44Z"/><path class="cls-1" d="M31.87,48.22l.35-.4,6.35,5.64,7.77-8.75L40,39.07l.35-.39L53.42,50.29l-.35.4L46.66,45l-7.77,8.75,6.42,5.69-.35.39Z"/><path class="cls-1" d="M51.7,39.82c-2.74-4.39-1.91-9.71,2.42-12.41,4.09-2.55,9.33-1.34,12.21,3.28,2.74,4.39,1.91,9.71-2.42,12.41C59.82,45.65,54.59,44.44,51.7,39.82ZM65.89,31c-2.62-4.2-7.5-5.73-11.55-3.2-3.83,2.4-5,7.36-2.19,11.77,2.62,4.2,7.49,5.73,11.54,3.2C67.53,40.34,68.64,35.38,65.89,31Z"/><path class="cls-1" d="M74.17,18.94l-5.92,1.92-.13-.4,12.36-4,.13.4-6,1.93L79.94,35l-.5.16Z"/><path class="cls-1" d="M88.07,23.67c-.33-5.16,2.93-9.45,8-9.78,4.81-.3,8.84,3.25,9.19,8.69.32,5.16-2.93,9.45-8,9.77C92.44,32.66,88.41,29.11,88.07,23.67Zm16.68-1.06c-.31-4.94-3.87-8.59-8.64-8.29-4.51.28-7.85,4.13-7.52,9.32.31,4.93,3.88,8.59,8.64,8.29C101.74,31.64,105.08,27.8,104.75,22.61Z"/><path class="cls-1" d="M120.71,16.18l5.78,1.88a8.33,8.33,0,0,1,5.55,11,8.33,8.33,0,0,1-10.95,5.64l-5.78-1.88Zm.51,18.12c4.56,1.48,8.8-.75,10.32-5.41s-.62-8.95-5.18-10.43l-5.28-1.71-5.14,15.83Z"/><path class="cls-1" d="M141.15,24.1l.46.24-8.16,15.47-.46-.24Z"/><path class="cls-1" d="M151,44.77l-7.28-5.86L138.12,42l-.41-.33,16.62-9.08.6.49-5.35,18.16-.4-.33Zm.13-.44L154.46,33l-10.35,5.69Z"/><path class="cls-1" d="M166.47,43.83l3.71,4.83c1.93,2.52,1.68,5.52-.62,7.28a4.64,4.64,0,0,1-6.42-.68c1.27,2,1.19,3.4-.28,4.84l-2.17,2.11a8.19,8.19,0,0,0-1.11,1.38l-.35-.45a8.07,8.07,0,0,1,1.1-1.28l2.16-2.11c1.54-1.49,1.52-3-.09-5L159,50.23l-6.07,4.66-.32-.42ZM162.7,54.4c1.75,2.28,4.44,2.74,6.54,1.13s2.35-4.33.6-6.61l-3.39-4.42L159.31,50Z"/><path class="cls-1" d="M169.44,70.29l7.91-11.23.22.5L170,70.33,183,72.06l.22.5-13.62-1.81-5.27,2.3-.2-.46Z"/><path class="cls-1" d="M180.63,136l-2.9,5.51c-1.52,2.87-4.46,3.89-7.16,2.47s-3.51-4.43-2-7.3l2.65-5-6.32-3.34.25-.46Zm-11.68.88a4.75,4.75,0,1,0,8.4,4.43l2.66-5-8.4-4.43Z"/><path class="cls-1" d="M170.6,153.25l-.35.4L163.9,148l-7.77,8.74,6.36,5.64-.35.4-13.08-11.62.34-.39,6.42,5.69,7.76-8.75L157.17,142l.35-.39Z"/><path class="cls-1" d="M151,161.5c2.84,4.32,2.14,9.66-2.12,12.46-4,2.66-9.29,1.57-12.29-3-2.84-4.32-2.14-9.66,2.12-12.46C142.7,155.86,148,157,151,161.5Zm-14,9.19c2.72,4.14,7.63,5.54,11.61,2.92,3.78-2.49,4.78-7.48,1.92-11.82-2.72-4.14-7.63-5.54-11.62-2.92C135.12,161.36,134.13,166.35,137,170.69Z"/><path class="cls-1" d="M128.51,182.84l5.92-1.92.13.4-12.36,4-.13-.41L128,183l-5.27-16.24.5-.16Z"/><path class="cls-1" d="M114.64,178.29c.33,5.16-2.93,9.45-8,9.77-4.81.31-8.84-3.24-9.19-8.68-.33-5.17,2.93-9.45,8-9.78C110.27,169.3,114.3,172.85,114.64,178.29ZM98,179.34c.31,4.94,3.87,8.6,8.64,8.3,4.51-.29,7.85-4.13,7.52-9.32-.31-4.94-3.88-8.6-8.64-8.29C101,170.31,97.63,174.16,98,179.34Z"/><path class="cls-1" d="M82.43,186l-5.82-1.73a8.75,8.75,0,0,1,5-16.77l5.82,1.73Zm-1-18.09c-4.6-1.37-8.79,1-10.18,5.65s.83,8.93,5.43,10.3l5.32,1.58,4.75-16Z"/><path class="cls-1" d="M61.48,178.24,61,178l8.17-15.47.46.24Z"/><path class="cls-1" d="M51.62,157.83,59,163.52l5.51-3.21.42.33-16.4,9.47-.61-.47,4.91-18.28.42.32Zm-.12.45-3.07,11.4,10.21-5.93Z"/><path class="cls-1" d="M36,158.74l-3.71-4.84c-1.93-2.52-1.68-5.52.62-7.28a4.63,4.63,0,0,1,6.42.69c-1.27-2-1.19-3.4.28-4.85l2.17-2.1A7.85,7.85,0,0,0,42.85,139l.35.46a9,9,0,0,1-1.09,1.28l-2.17,2.1c-1.54,1.49-1.52,3,.1,5.06l3.42,4.46,6.07-4.65.32.42Zm3.77-10.57c-1.75-2.28-4.43-2.74-6.54-1.13s-2.35,4.32-.6,6.6L36,158.06l7.14-5.47Z"/><path class="cls-1" d="M32.92,132.48l-7.63,11.43-.24-.5,7.33-10.95-13.1-1.41-.23-.5L32.7,132l5.21-2.43.22.45Z"/><path class="cls-1" d="M101,159.7A58.7,58.7,0,1,1,159.7,101,58.76,58.76,0,0,1,101,159.7Zm0-117A58.3,58.3,0,1,0,159.3,101,58.36,58.36,0,0,0,101,42.7Z"/><path class="cls-1" d="M101,201.7A100.7,100.7,0,1,1,201.7,101,100.81,100.81,0,0,1,101,201.7Zm0-201A100.3,100.3,0,1,0,201.3,101,100.41,100.41,0,0,0,101,.7Z"/><path class="cls-1" d="M22.21,104.2a3.2,3.2,0,1,1,3.2-3.2A3.2,3.2,0,0,1,22.21,104.2Zm0-6A2.8,2.8,0,1,0,25,101,2.8,2.8,0,0,0,22.21,98.2Z"/><path class="cls-1" d="M179.79,104.2A3.2,3.2,0,1,1,183,101,3.21,3.21,0,0,1,179.79,104.2Zm0-6a2.8,2.8,0,1,0,2.8,2.8A2.81,2.81,0,0,0,179.79,98.2Z"/></svg>