<?xml version="1.0" encoding="utf-8"?>
<!-- Generator: Adobe Illustrator 24.3.0, SVG Export Plug-In . SVG Version: 6.00 Build 0)  -->
<svg id="logo" version="1.1" id="Layer_1" xmlns="http://www.w3.org/2000/svg" xmlns:xlink="http://www.w3.org/1999/xlink" x="0px" y="0px"
	 viewBox="0 0 78 78" style="enable-background:new 0 0 78 78;" xml:space="preserve">
<style type="text/css">
	.st0{fill:#373535;}
	.st1{clip-path:url(#SVGID_2_);}
</style>
<g>
	<g>
		<path class="st0" d="M8.3,25.4l1.2-2.3c0.6-1.2,1.8-1.6,2.9-1c1.1,0.6,1.4,1.8,0.8,3l-0.9,1.6l2.3,1.2l-0.3,0.6L8.3,25.4z
			 M12.7,24.9c0.4-0.8,0.2-1.7-0.6-2.2c-0.8-0.4-1.7-0.1-2.1,0.7L9.1,25l2.7,1.4L12.7,24.9z"/>
	</g>
	<g>
		<path class="st0" d="M12.2,18.7l0.5-0.5l2.3,2l2.5-2.9l-2.3-2l0.5-0.5l5.1,4.5l-0.5,0.5l-2.3-2.1l-2.5,2.9l2.3,2.1l-0.5,0.5
			L12.2,18.7z"/>
	</g>
	<g>
		<path class="st0" d="M19.9,15.4c-1.1-1.7-0.7-3.8,1-4.8c1.6-1,3.7-0.5,4.8,1.2c1.1,1.7,0.7,3.8-1,4.8C23,17.7,21,17.2,19.9,15.4z
			 M25.1,12.2c-0.9-1.4-2.5-1.9-3.9-1.1c-1.3,0.8-1.7,2.5-0.7,4c0.9,1.4,2.5,1.9,3.9,1.1C25.6,15.3,26,13.7,25.1,12.2z"/>
	</g>
	<g>
		<path class="st0" d="M28.5,7.7l-2.1,0.7l-0.2-0.5l4.9-1.6l0.2,0.5l-2.1,0.7l1.9,5.9l-0.7,0.2L28.5,7.7z"/>
	</g>
	<g>
		<path class="st0" d="M33.9,9.1c-0.1-2,1.2-3.7,3.2-3.8c1.9-0.1,3.5,1.3,3.6,3.3c0.1,2-1.2,3.7-3.2,3.8C35.6,12.6,34,11.2,33.9,9.1
			z M40,8.8c-0.1-1.7-1.3-2.9-2.9-2.8c-1.5,0.1-2.6,1.4-2.5,3.1c0.1,1.7,1.3,2.9,2.9,2.8C39,11.8,40.1,10.5,40,8.8z"/>
	</g>
	<g>
		<path class="st0" d="M46.4,6.2l2.3,0.7c1.9,0.6,2.8,2.4,2.2,4.3c-0.6,1.9-2.4,2.8-4.3,2.1l-2.3-0.7L46.4,6.2z M46.8,12.9
			c1.5,0.5,3-0.3,3.5-1.8c0.5-1.6-0.2-3.1-1.7-3.6l-1.7-0.5l-1.8,5.4L46.8,12.9z"/>
	</g>
	<g>
		<path class="st0" d="M54.4,9.2l0.6,0.3l-3.2,6l-0.6-0.3L54.4,9.2z"/>
	</g>
	<g>
		<path class="st0" d="M58.1,17.4l-2.6-2.1l-1.9,1.1L53.1,16l6.3-3.6l0.7,0.5l-2.1,7l-0.5-0.4L58.1,17.4z M58.3,16.9l1.2-3.7
			L56,15.1L58.3,16.9z"/>
	</g>
	<g>
		<path class="st0" d="M64.2,16.8l1.6,2c0.8,1,0.7,2.2-0.2,2.9c-0.7,0.6-1.7,0.5-2.4-0.3c0.5,0.8,0.4,1.4-0.2,1.9l-0.8,0.8
			c-0.2,0.2-0.4,0.4-0.4,0.5l-0.4-0.6c0.1-0.1,0.2-0.3,0.4-0.5l0.8-0.8c0.5-0.5,0.5-1,0-1.7l-1.1-1.4l-2.2,1.7l-0.4-0.5L64.2,16.8z
			 M63,20.9c0.6,0.7,1.4,0.9,2.1,0.4c0.7-0.5,0.8-1.4,0.2-2.1l-1.1-1.5l-2.3,1.8L63,20.9z"/>
	</g>
	<g>
		<path class="st0" d="M65.4,27l3.1-4.2l0.3,0.7L66.2,27l4.4,0.5l0.3,0.7l-5.2-0.6l-2.1,0.9l-0.3-0.6L65.4,27z"/>
	</g>
	<g>
		<defs>
			<rect id="SVGID_1_" width="78" height="78"/>
		</defs>
		<clipPath id="SVGID_2_">
			<use xlink:href="#SVGID_1_"  style="overflow:visible;"/>
		</clipPath>
		<path class="st1" d="M39,61.8c-12.6,0-22.8-10.2-22.8-22.8c0-12.6,10.2-22.8,22.8-22.8c12.6,0,22.8,10.2,22.8,22.8
			C61.8,51.6,51.6,61.8,39,61.8z M39,16.6c-12.3,0-22.4,10-22.4,22.4s10,22.4,22.4,22.4s22.4-10,22.4-22.4S51.3,16.6,39,16.6z"/>
		<path class="st1" d="M39,78C17.5,78,0,60.5,0,39S17.5,0,39,0s39,17.5,39,39S60.5,78,39,78z M39,0.4C17.7,0.4,0.4,17.7,0.4,39
			c0,21.3,17.3,38.6,38.6,38.6c21.3,0,38.6-17.3,38.6-38.6C77.6,17.7,60.3,0.4,39,0.4z"/>
		<path class="st1" d="M8.6,40.2c0.6,0,1.2-0.5,1.2-1.2c0-0.6-0.5-1.2-1.2-1.2c-0.6,0-1.2,0.5-1.2,1.2C7.4,39.6,7.9,40.2,8.6,40.2"
			/>
		<path class="st1" d="M69.4,40.2c0.6,0,1.2-0.5,1.2-1.2c0-0.6-0.5-1.2-1.2-1.2s-1.2,0.5-1.2,1.2C68.3,39.6,68.8,40.2,69.4,40.2"/>
	</g>
	<g>
		<path class="st0" d="M69.8,52.4l-1.2,2.3c-0.6,1.2-1.8,1.6-2.9,1c-1.1-0.6-1.4-1.8-0.8-3l0.9-1.6l-2.3-1.2l0.3-0.6L69.8,52.4z
			 M65.4,52.9c-0.4,0.8-0.2,1.7,0.6,2.2c0.8,0.4,1.7,0.1,2.1-0.7l0.8-1.6l-2.7-1.4L65.4,52.9z"/>
	</g>
	<g>
		<path class="st0" d="M66,59l-0.5,0.5l-2.3-2l-2.5,2.9l2.3,2l-0.5,0.5l-5.1-4.5l0.5-0.5l2.3,2.1l2.5-2.9l-2.3-2.1l0.5-0.5L66,59z"
			/>
	</g>
	<g>
		<path class="st0" d="M58.4,62.3c1.1,1.7,0.8,3.8-0.9,4.9c-1.6,1.1-3.7,0.6-4.8-1.1c-1.1-1.7-0.8-3.8,0.9-4.9
			C55.1,60.2,57.2,60.6,58.4,62.3z M53.2,65.7c0.9,1.4,2.6,1.9,3.9,1c1.3-0.8,1.6-2.5,0.6-4c-0.9-1.4-2.6-1.9-3.9-1
			C52.6,62.5,52.3,64.2,53.2,65.7z"/>
	</g>
	<g>
		<path class="st0" d="M49.7,70.2l2.1-0.7L52,70l-4.9,1.6L47,71.1l2.1-0.7l-1.9-5.9l0.7-0.2L49.7,70.2z"/>
	</g>
	<g>
		<path class="st0" d="M44.4,68.8c0.1,2-1.2,3.7-3.2,3.8c-1.9,0.1-3.5-1.3-3.6-3.3c-0.1-2,1.2-3.7,3.2-3.8
			C42.6,65.4,44.2,66.8,44.4,68.8z M38.2,69.2c0.1,1.7,1.3,2.9,2.9,2.8c1.5-0.1,2.6-1.4,2.5-3.1c-0.1-1.7-1.3-2.9-2.9-2.8
			C39.3,66.2,38.1,67.5,38.2,69.2z"/>
	</g>
	<g>
		<path class="st0" d="M32,71.9l-2.3-0.7c-2-0.6-2.9-2.3-2.3-4.2c0.6-1.9,2.3-2.8,4.3-2.3l2.3,0.7L32,71.9z M31.4,65.2
			c-1.6-0.5-3,0.3-3.5,1.9c-0.5,1.6,0.3,3,1.8,3.5l1.7,0.5l1.6-5.4L31.4,65.2z"/>
	</g>
	<g>
		<path class="st0" d="M23.9,68.9l-0.6-0.3l3.2-6l0.6,0.3L23.9,68.9z"/>
	</g>
	<g>
		<path class="st0" d="M20.2,60.8l2.6,2l1.9-1.1l0.5,0.4l-6.3,3.7l-0.7-0.5l2-7l0.5,0.4L20.2,60.8z M20,61.4l-1.1,3.8l3.4-2L20,61.4
			z"/>
	</g>
	<g>
		<path class="st0" d="M14,61.4l-1.6-2c-0.8-1-0.7-2.2,0.2-2.9c0.7-0.6,1.7-0.5,2.4,0.3c-0.5-0.8-0.4-1.4,0.2-1.9l0.8-0.8
			c0.2-0.2,0.4-0.4,0.4-0.5l0.4,0.6c-0.1,0.1-0.2,0.3-0.4,0.5l-0.8,0.8c-0.5,0.5-0.5,1,0,1.7l1.1,1.4l2.2-1.7l0.4,0.5L14,61.4z
			 M15.2,57.3c-0.6-0.7-1.4-0.9-2.1-0.4c-0.7,0.5-0.8,1.4-0.2,2.1l1.1,1.5l2.3-1.8L15.2,57.3z"/>
	</g>
	<g>
		<path class="st0" d="M12.8,51.3l-3,4.3l-0.3-0.7l2.5-3.6l-4.4-0.4l-0.3-0.7l5.2,0.5l2-1l0.3,0.6L12.8,51.3z"/>
	</g>
</g>
</svg>
